<?xml version="1.0" encoding="UTF-8"?>
<svg width="49px" height="49px" viewBox="0 0 49 49" version="1.1" xmlns="http://www.w3.org/2000/svg" xmlns:xlink="http://www.w3.org/1999/xlink">
    <title>money</title>
    <g id="页面-1" stroke="none" stroke-width="1" fill="none" fill-rule="evenodd">
        <g id="交易-自选区-买币-展开" transform="translate(-463.000000, -321.000000)" fill="#FFFFFF" fill-rule="nonzero">
            <g id="编组-9" transform="translate(431.000000, 292.000000)">
                <path d="M68.75,50.4375 C70.4405,50.4375 71.8125,51.8095 71.8125,53.5 L71.8125,53.5 L71.8125,74.9375 C71.8125,76.628 70.4405,78 68.75,78 L68.75,78 L35.0625,78 C33.372,78 32,76.628 32,74.9375 L32,74.9375 L32,53.5 C32,51.8095 33.372,50.4375 35.0625,50.4375 L35.0625,50.4375 Z M35.0625,72.15675 L35.0625,74.9375 L37.84325,74.9375 C37.3808125,73.639 36.361,72.6191875 35.0625,72.15675 L35.0625,72.15675 Z M62.778125,53.5 L41.0313125,53.5 C40.421875,56.495125 38.057625,58.859375 35.0625,59.4688125 L35.0625,59.4688125 L35.0625,68.9686875 C38.057625,69.578125 40.421875,71.942375 41.0313125,74.9375 L41.0313125,74.9375 L62.7811875,74.9375 C63.390625,71.942375 65.754875,69.578125 68.75,68.965625 L68.75,68.965625 L68.75,59.4688125 C65.754875,58.859375 63.390625,56.495125 62.778125,53.5 L62.778125,53.5 Z M68.75,72.15675 C67.4515,72.6191875 66.4316875,73.639 65.96925,74.9375 L65.96925,74.9375 L68.75,74.9375 Z M51.90625,59.625 C54.4389375,59.625 56.5,61.6860625 56.5,64.21875 C56.5,66.7514375 54.4389375,68.8125 51.90625,68.8125 C49.3735625,68.8125 47.3125,66.7514375 47.3125,64.21875 C47.3125,61.6860625 49.3735625,59.625 51.90625,59.625 Z M51.90625,62.6875 C51.0640625,62.6875 50.375,63.3765625 50.375,64.21875 C50.375,65.0609375 51.0640625,65.75 51.90625,65.75 C52.7484375,65.75 53.4375,65.0609375 53.4375,64.21875 C53.4375,63.3765625 52.7484375,62.6875 51.90625,62.6875 Z M64.15625,29 C73.44175,29 81,36.55825 81,45.84375 C81,49.5524375 79.8331875,53.0498125 77.625125,55.956125 C77.325,56.35425 76.865625,56.5625 76.40625,56.5625 C76.0846875,56.5625 75.757,56.4614375 75.4844375,56.250125 C74.807625,55.7386875 74.6759375,54.780125 75.187375,54.106375 C76.9850625,51.7329375 77.9375,48.875625 77.9375,45.84375 C77.9375,38.2456875 71.7543125,32.0625 64.15625,32.0625 C56.5581875,32.0625 50.375,38.2456875 50.375,45.84375 C50.375,46.689 49.689,47.375 48.84375,47.375 C47.9985,47.375 47.3125,46.689 47.3125,45.84375 C47.3125,36.55825 54.87075,29 64.15625,29 Z M68.75,53.5 L65.96925,53.5 C66.4316875,54.7985 67.4515,55.8183125 68.75,56.28075 L68.75,56.28075 L68.75,53.5 Z M37.84325,53.5 L35.0625,53.5 L35.0625,56.28075 C36.361,55.8183125 37.3808125,54.7985 37.84325,53.5 L37.84325,53.5 Z M64.15625,35.125 C65.0015,35.125 65.6875,35.811 65.6875,36.65625 L65.6875,36.65625 L65.6875,38.1875 L67.21875,38.1875 C68.064,38.1875 68.75,38.8735 68.75,39.71875 C68.75,40.564 68.064,41.25 67.21875,41.25 L67.21875,41.25 L64.15625,41.25 C63.3140625,41.25 62.625,41.9390625 62.625,42.78125 C62.625,43.6234375 63.3140625,44.3125 64.15625,44.3125 L64.2955601,44.3187615 C65.0756049,44.3892137 65.6875,45.0454583 65.6875,45.84375 C65.6875,46.689 65.0015,47.375 64.15625,47.375 C61.6235625,47.375 59.5625,45.3139375 59.5625,42.78125 C59.5625,40.7875625 60.8456875,39.1031875 62.625,38.46925 L62.625,38.46925 L62.625,36.65625 C62.625,35.811 63.311,35.125 64.15625,35.125 Z" id="money"></path>
            </g>
        </g>
    </g>
</svg>