<?xml version="1.0" encoding="utf-8"?>
<svg width="50" height="50" xmlns="http://www.w3.org/2000/svg" xml:space="preserve" style="enable-background:new 0 0 508.408 508.408;" version="1.1">

 <g>
  <title>icon-电子棋牌</title>
  <rect fill="none" id="canvas_background" height="52" width="52" y="-1" x="-1"/>
 </g>
 <g>
  <title>icon-电子棋牌</title>
  <g stroke="null" id="svg_1">
   <g stroke="null" id="svg_2">
    <path stroke="null" id="svg_3" d="m17.235839,42.111701c-1.054812,-0.963803 -1.821676,-2.214806 -2.198861,-3.645031l-5.798481,-21.986092c-1.065535,-4.040212 1.354415,-8.195399 5.395467,-9.260934l9.870863,-2.602808c-1.699523,-1.318794 -4.032193,-1.728056 -6.17035,-0.863189l-13.431319,5.433884c-3.195766,1.292965 -4.738354,4.931935 -3.445482,8.126769l8.528011,21.078331c1.176126,2.906793 4.291607,4.437912 7.250152,3.719069z"/>
    <path stroke="null" id="svg_4" d="m11.088614,16.11766l5.797735,21.986092c0.520692,1.973296 1.932267,3.468514 3.687086,4.18372c-0.60993,-1.090525 -0.95942,-2.345166 -0.95942,-3.679999l0,-22.737664c0,-4.179337 3.399045,-7.579221 7.579221,-7.579221l9.636347,0c-1.223309,-2.747247 -4.284427,-4.286292 -7.285866,-3.49453l-14.010944,3.695105c-3.333026,0.879227 -5.323293,4.293472 -4.444159,7.626498z"/>
    <path stroke="null" id="svg_5" d="m42.16621,10.206816l-14.489674,0c-3.447161,0 -6.241778,2.794524 -6.241778,6.241778l0,22.737758c0,3.447254 2.794524,6.241778 6.241778,6.241778l14.489674,0c3.447254,0 6.241778,-2.794524 6.241778,-6.241778l0,-22.737851c0,-3.447254 -2.794524,-6.241684 -6.241778,-6.241684zm-3.720002,21.737123c-0.910465,0 -1.73794,-0.335317 -2.385262,-0.878202l0.762482,2.420043c0.150594,0.479757 -0.13381,0.867478 -0.636692,0.867478l-2.502007,0c-0.502043,0 -0.805189,-0.393223 -0.67772,-0.879134l0.595663,-2.257793c-0.617949,0.456538 -1.380338,0.727608 -2.208745,0.727608c-2.060669,0 -3.729886,-1.670056 -3.729886,-3.730818c0,-2.060575 1.669217,-3.730632 3.729886,-3.730632c0.182764,0 0.361146,0.01781 0.536824,0.0428c-0.463718,-0.621585 -0.740942,-1.390222 -0.740942,-2.225716c0,-2.060669 1.670056,-3.730818 3.729886,-3.730818c2.060669,0 3.731658,1.67015 3.731658,3.730818c0,0.835494 -0.278156,1.604131 -0.740942,2.225716c0.174745,-0.025829 0.353966,-0.0428 0.535891,-0.0428c2.060669,0 3.731751,1.670056 3.731751,3.730632c-0.000186,2.060762 -1.670336,3.730818 -3.731844,3.730818z"/>
   </g>
  </g>
  <g id="svg_6"/>
  <g id="svg_7"/>
  <g id="svg_8"/>
  <g id="svg_9"/>
  <g id="svg_10"/>
  <g id="svg_11"/>
  <g id="svg_12"/>
  <g id="svg_13"/>
  <g id="svg_14"/>
  <g id="svg_15"/>
  <g id="svg_16"/>
  <g id="svg_17"/>
  <g id="svg_18"/>
  <g id="svg_19"/>
  <g id="svg_20"/>
 </g>
</svg>