<?xml version="1.0" encoding="UTF-8"?>
<svg width="43px" height="38px" viewBox="0 0 43 38" version="1.1" xmlns="http://www.w3.org/2000/svg" xmlns:xlink="http://www.w3.org/1999/xlink">
    <title>主页-on</title>
    <defs>
        <linearGradient x1="100%" y1="89.0481341%" x2="0%" y2="10.9518659%" id="linearGradient-1">
            <stop stop-color="#FFBC00" offset="0%"></stop>
            <stop stop-color="#FFD92A" offset="100%"></stop>
        </linearGradient>
    </defs>
    <g id="4.BeePal" stroke="none" stroke-width="1" fill="none" fill-rule="evenodd">
        <g id="首页-点数-总览" transform="translate(-67.000000, -1470.000000)" fill="url(#linearGradient-1)">
            <g id="编组-6" transform="translate(0.000000, 1442.000000)">
                <g id="编组-16" transform="translate(56.000000, 15.000000)">
                    <g id="主页" transform="translate(11.000000, 13.000000)">
                        <path d="M39,0 C41.209139,-8.49901461e-16 43,1.790861 43,4 L43,10 L20,10 C18.3431458,10 17,11.3431458 17,13 L17,25 C17,26.6568542 18.3431458,28 20,28 L43,28 L43,34 C43,36.209139 41.209139,38 39,38 L4,38 C1.790861,38 -1.73547709e-16,36.209139 0,34 L0,4 C-7.1463071e-16,1.790861 1.790861,-3.82769592e-17 4,0 L39,0 Z M43,14 L43,24 L21,24 L21,14 L43,14 Z M38,17 C36.8954305,17 36,17.8954305 36,19 C36,20.1045695 36.8954305,21 38,21 C39.1045695,21 40,20.1045695 40,19 C40,17.8954305 39.1045695,17 38,17 Z" id="主页-on"></path>
                    </g>
                </g>
            </g>
        </g>
    </g>
</svg>